<svg width="0" height="0" class="hidden">
  <symbol version="1.1" id="email-svgrepo-com" xmlns="http://www.w3.org/2000/svg" xmlns:xlink="http://www.w3.org/1999/xlink" enable-background="new 0 0 64 64" xml:space="preserve" viewBox="0 0 64 64">
    <path id="Mail" d="M58.0034485,8H5.9965506c-3.3136795,0-5.9999995,2.6862001-5.9999995,6v36c0,3.3137016,2.6863203,6,5.9999995,6
	h52.006897c3.3137016,0,6-2.6862984,6-6V14C64.0034485,10.6862001,61.3171501,8,58.0034485,8z M62.0034485,49.1108017
	L43.084549,30.1919994l18.9188995-12.0555992V49.1108017z M5.9965506,10h52.006897c2.2056007,0,4,1.7943001,4,4v1.7664003
	L34.4677505,33.3134003c-1.4902,0.9492989-3.3935013,0.9199982-4.8495998-0.0703011L1.9965508,14.4694996V14
	C1.9965508,11.7943001,3.7910507,10,5.9965506,10z M1.9965508,16.8852005L21.182251,29.9251003L1.9965508,49.1108017V16.8852005z
	 M58.0034485,54H5.9965506c-1.6473999,0-3.0638998-1.0021019-3.6760998-2.4278984l20.5199013-20.5200024l5.6547985,3.843401
	c1.0859013,0.7383003,2.3418007,1.1083984,3.5995998,1.1083984c1.1953011,0,2.3925018-0.3339996,3.4463005-1.0048981
	l5.8423996-3.7230015l20.2961006,20.2961025C61.0673485,52.9978981,59.6508713,54,58.0034485,54z"></path>
  </symbol>
  <symbol version="1.1" id="linkedin-svgrepo-com" xmlns="http://www.w3.org/2000/svg" xmlns:xlink="http://www.w3.org/1999/xlink" xml:space="preserve" viewBox="0 0 455.731 455.731">
    <g>
      <rect x="0" y="0" width="5" height="5"></rect>
      <g>
        <path d="M107.255,69.215c20.873,0.017,38.088,17.257,38.043,38.234c-0.05,21.965-18.278,38.52-38.3,38.043
			c-20.308,0.411-38.155-16.551-38.151-38.188C68.847,86.319,86.129,69.199,107.255,69.215z"></path>
        <path d="M129.431,386.471H84.71c-5.804,0-10.509-4.705-10.509-10.509V185.18
			c0-5.804,4.705-10.509,10.509-10.509h44.721c5.804,0,10.509,4.705,10.509,10.509v190.783
			C139.939,381.766,135.235,386.471,129.431,386.471z"></path>
        <path d="M386.884,241.682c0-39.996-32.423-72.42-72.42-72.42h-11.47c-21.882,0-41.214,10.918-52.842,27.606
			c-1.268,1.819-2.442,3.708-3.52,5.658c-0.373-0.056-0.594-0.085-0.599-0.075v-23.418c0-2.409-1.953-4.363-4.363-4.363h-55.795
			c-2.409,0-4.363,1.953-4.363,4.363V382.11c0,2.409,1.952,4.362,4.361,4.363l57.011,0.014c2.41,0.001,4.364-1.953,4.364-4.363
			V264.801c0-20.28,16.175-37.119,36.454-37.348c10.352-0.117,19.737,4.031,26.501,10.799c6.675,6.671,10.802,15.895,10.802,26.079
			v117.808c0,2.409,1.953,4.362,4.361,4.363l57.152,0.014c2.41,0.001,4.364-1.953,4.364-4.363V241.682z"></path>
      </g>
    </g>
  </symbol>
  <symbol version="1.1" id="twitter-svgrepo-com" xmlns="http://www.w3.org/2000/svg" xmlns:xlink="http://www.w3.org/1999/xlink" xml:space="preserve" viewBox="0 0 455.731 455.731">
    <g>
      <rect x="0" y="0" width="5" height="5"></rect>
      <path d="M60.377,337.822c30.33,19.236,66.308,30.368,104.875,30.368c108.349,0,196.18-87.841,196.18-196.18
		c0-2.705-0.057-5.39-0.161-8.067c3.919-3.084,28.157-22.511,34.098-35c0,0-19.683,8.18-38.947,10.107
		c-0.038,0-0.085,0.009-0.123,0.009c0,0,0.038-0.019,0.104-0.066c1.775-1.186,26.591-18.079,29.951-38.207
		c0,0-13.922,7.431-33.415,13.932c-3.227,1.072-6.605,2.126-10.088,3.103c-12.565-13.41-30.425-21.78-50.25-21.78
		c-38.027,0-68.841,30.805-68.841,68.803c0,5.362,0.617,10.581,1.784,15.592c-5.314-0.218-86.237-4.755-141.289-71.423
		c0,0-32.902,44.917,19.607,91.105c0,0-15.962-0.636-29.733-8.864c0,0-5.058,54.416,54.407,68.329c0,0-11.701,4.432-30.368,1.272
		c0,0,10.439,43.968,63.271,48.077c0,0-41.777,37.74-101.081,28.885L60.377,337.822z"></path>
    </g>
  </symbol>
  <symbol xmlns="http://www.w3.org/2000/svg" stroke-width="3" stroke="#000000" viewBox="0 0 64 64" id="website-click-svgrepo-com">
    <path d="M39.93,55.72A24.86,24.86,0,1,1,56.86,32.15a37.24,37.24,0,0,1-.73,6"></path>
    <path d="M37.86,51.1A47,47,0,0,1,32,56.7"></path>
    <path d="M32,7A34.14,34.14,0,0,1,43.57,30a34.07,34.07,0,0,1,.09,4.85"></path>
    <path d="M32,7A34.09,34.09,0,0,0,20.31,32.46c0,16.2,7.28,21,11.66,24.24"></path>
    <line x1="10.37" y1="19.9" x2="53.75" y2="19.9"></line>
    <line x1="32" y1="6.99" x2="32" y2="56.7"></line>
    <line x1="11.05" y1="45.48" x2="37.04" y2="45.48"></line>
    <line x1="7.14" y1="32.46" x2="56.86" y2="31.85"></line>
    <path d="M53.57,57,58,52.56l-8-8,4.55-2.91a.38.38,0,0,0-.12-.7L39.14,37.37a.39.39,0,0,0-.46.46L42,53.41a.39.39,0,0,0,.71.13L45.57,49Z"></path>
  </symbol>
</svg>